<svg xmlns="http://www.w3.org/2000/svg" xmlns:xlink="http://www.w3.org/1999/xlink" width="70" height="70" version="1.1" viewBox="0 0 70 70"><title>ic/presentation</title><g id="ic/presentation" fill="none" fill-rule="evenodd" stroke="none" stroke-width="1"><g id="picto-fiche6" fill-rule="nonzero"><g transform="translate(0.000000, 5.000000)"><rect id="Rectangle" width="6" height="6" x="27" y="13" fill="#CE0033"/><rect id="Rectangle" width="6" height="23" x="27" y="24" fill="#000"/><path id="Shape" fill="#CE0033" d="M30,60 C13.4623505,60 0,46.5376495 0,30 C0,13.4623505 13.4623505,0 30,0 C46.5376495,0 60,13.4623505 60,30 C60,46.5376495 46.5376495,60 30,60 Z M30,5.63687544 C16.5622801,5.63687544 5.62983814,16.5693174 5.62983814,30.0070373 C5.62983814,43.4447572 16.5622801,54.3701619 30,54.3701619 C43.4377199,54.3701619 54.3701619,43.4377199 54.3701619,30 C54.3701619,16.5622801 43.4377199,5.62983814 30,5.62983814 L30,5.63687544 Z"/></g></g></g></svg>